<svg width="155" height="42" viewBox="0 0 155 42" fill="none" xmlns="http://www.w3.org/2000/svg">
<path fill-rule="evenodd" clip-rule="evenodd" d="M151.594 26.5492C150.731 25.6332 149.068 24.3384 147.359 23.2505C143.888 21.042 142.341 21.0043 141.834 20.992C141.748 20.9895 141.665 20.9884 141.585 20.9884C140.115 20.9884 138.977 21.3995 138.198 22.2107C136.535 21.2171 135.13 20.5935 134.006 20.3502C135.282 17.3414 136.375 14.2298 137.375 11.1802C137.709 10.2288 138.041 9.25371 138.373 8.24951L138.386 8.21294L138.395 8.18102C138.934 6.409 138.699 4.71682 137.735 3.41604C136.782 2.1305 135.238 1.39316 133.497 1.39316C131.809 1.39316 130.195 2.11043 129.119 3.32503C129.069 3.25027 129.017 3.17754 128.964 3.10744C128.041 1.88972 126.594 1.21918 124.89 1.21918C122.136 1.21918 119.085 2.96114 117.637 5.35925L117.604 5.41276C115.966 8.06003 114.277 10.7905 112.587 13.5329C112.668 12.1215 112.756 10.5911 112.85 9.10936C113.013 6.75993 112.391 4.7009 111.096 3.31165C110.062 2.2006 108.667 1.58865 107.172 1.58865C104.598 1.58865 102.221 3.31681 100.657 6.32162C99.8174 7.76642 98.9835 9.31941 98.1758 10.9408C97.4714 10.3985 96.6239 10.1131 95.707 10.1131C94.3177 10.1131 92.9334 10.7622 91.5949 12.0413C90.4773 13.0938 89.6434 14.6988 88.9246 16.5847C88.3692 17.4644 87.5564 17.4662 87.5234 16.4515C87.5471 16.3282 87.5708 16.2037 87.5945 16.0769L87.6004 16.0425C87.8951 14.3249 87.5276 12.751 86.5658 11.6108C85.7073 10.5926 84.4264 10.0086 83.0506 10.0086C82.7399 10.0086 82.4258 10.0383 82.1125 10.0962C82.1218 9.76339 82.1184 9.42456 82.1023 9.07981C82.0888 8.50435 82.0422 7.91797 81.9626 7.326L81.9482 7.21669L81.9254 7.10883C81.6062 5.61078 80.6411 3.56556 77.8564 2.3298C76.1893 1.58984 74.074 1.2301 71.3895 1.2301C71.0346 1.2301 70.6647 1.23662 70.2996 1.24932C68.4908 1.22697 66.6489 1.19335 64.8675 1.16076C63.0567 1.12757 61.1841 1.09328 59.3253 1.07059L57.2499 1.04536L56.5776 3.00906C55.4406 6.33009 54.5226 9.09615 53.6984 11.6842C53.6448 11.646 53.5893 11.61 53.5348 11.5728C50.7412 9.51956 47.0327 9.35327 43.6864 10.1274C43.0401 10.277 42.3163 10.4911 41.563 10.7656C40.5374 11.1172 39.5444 11.5525 38.6321 12.0626C38.5125 12.1295 38.3955 12.1975 38.2801 12.266C37.2358 12.6317 36.2128 12.2042 37.1332 11.3392C37.5083 11.0001 37.8963 10.6613 38.2939 10.3213C38.7256 9.97082 39.1728 9.61836 39.636 9.26252L39.7111 9.20486L39.7822 9.14246C41.3446 7.76938 41.9209 5.59123 41.2165 3.72219C40.5636 1.99047 38.9724 0.914642 37.0635 0.914642C36.3548 0.914642 35.6153 1.06424 34.8655 1.35921L34.7358 1.41027L34.6117 1.47359C34.2127 1.67721 33.8211 1.88371 33.4331 2.09189C30.6345 3.48927 28.0505 5.2132 25.6205 7.14879C25.0173 7.61724 24.4205 8.09991 23.8281 8.60002C23.894 8.28897 23.9563 7.9774 24.0143 7.66889C24.5148 5.14378 23.8057 3.62093 23.1229 2.78792C22.3542 1.85026 21.2169 1.31248 20.0028 1.31248C18.1086 1.31248 16.3249 2.54891 15.2353 4.61285C9.95282 13.723 6.04752 25.8502 2.9241 36.5117L2 39.6659L5.25041 40.1534C5.83628 40.2413 6.61341 40.3422 7.43017 40.3422C8.1096 40.3422 8.75431 40.2707 9.36542 40.127C12.2148 39.5339 13.9899 37.5123 15.101 34.9789C15.2331 34.7121 15.3617 34.4363 15.4859 34.1493L15.5618 33.9739L15.6137 33.7899C15.6774 33.5646 15.7416 33.3497 15.8067 33.1424C16.4924 31.3509 17.2201 29.9302 18.2759 28.4225C18.4235 28.232 18.5766 28.0394 18.736 27.8414C19.4454 30.3234 19.9782 32.9508 20.4944 35.4958L20.5318 35.6797C20.744 36.9154 21.4971 38.1771 22.598 39.1412C23.7811 40.1775 25.1937 40.7483 26.5762 40.7486C27.2223 40.7486 28.8282 40.5923 30.134 39.1849C31.473 40.3912 33.4005 41.0275 35.7254 41.0275C37.6165 41.0275 39.6647 40.5864 41.365 39.8148C42.1247 40.3004 42.9624 40.5466 43.8565 40.5466C43.9056 40.5466 43.9549 40.5457 43.9981 40.5442L46.8496 40.5439L46.9161 40.5406C48.4102 40.4658 49.3426 39.8868 49.8896 39.3573C51.4658 40.9032 53.6553 40.903 54.8505 40.903L54.8972 40.9027C57.367 40.8608 60.1664 40.8134 62.8796 40.8134H62.9871L63.0942 40.8053C66.401 40.5573 69.4014 39.4262 72.0161 37.4423C72.1847 37.7321 72.3702 38.0098 72.5693 38.2702C73.9538 40.081 75.9881 41.0783 78.2975 41.0783C79.4113 41.0783 80.5835 40.8445 81.7823 40.3835C81.7823 40.3835 84.9056 41.5596 87.713 40.2888L90.5247 40.7719C90.9557 40.846 91.3832 40.8836 91.7964 40.8836C94.2821 40.8836 96.4343 39.6035 98.3756 36.97C98.8142 36.3756 99.2561 35.6892 99.6947 34.9229C99.8124 36.93 100.386 38.4694 101.406 39.506C102.245 40.3602 103.362 40.8307 104.552 40.8307C106.786 40.8307 109.056 39.206 111.115 36.1315L111.123 36.1206C111.206 35.9948 111.289 35.8676 111.373 35.7393C111.355 37.1442 111.863 38.076 112.333 38.6366C113.072 39.5145 114.133 39.998 115.323 39.9982C116.241 39.9981 117.18 39.7102 118.045 39.1639C118.861 39.9043 119.889 40.2946 121.027 40.2947C121.904 40.2947 122.684 40.0667 123.313 39.883L123.324 39.8801C123.449 39.8433 123.575 39.8063 123.7 39.7726L123.888 39.722L124.068 39.6465C124.324 39.5381 124.576 39.4215 124.816 39.2987C125.399 40.4061 126.521 41.0853 127.796 41.0854C127.796 41.0854 128.73 40.9982 129.214 40.826L129.252 40.8119L129.286 40.7989C130.609 40.2859 132.416 39.3954 133.894 38.6476C134.431 39.8918 135.616 40.6833 136.972 40.6835C137.445 40.6835 137.932 40.5886 138.422 40.4014C139.92 39.8344 142.398 38.6318 145.776 36.8312C145.888 36.7777 146.014 36.7193 146.151 36.6562L146.187 36.6394C149.298 35.2001 152.38 33.5518 152.925 30.6446C153.197 29.1837 152.725 27.7288 151.594 26.5492Z" fill="white"/>
<path fill-rule="evenodd" clip-rule="evenodd" d="M122.058 31.5751C120.712 32.9659 119.276 35.0298 119.769 36.8244C120.577 37.8563 121.789 37.3179 122.955 37.0039C124.66 36.2859 125.961 35.1194 126.095 33.1454C126.813 31.4853 123.852 29.8702 122.058 31.5751ZM91.0107 37.946C94.4201 27.4474 97.7855 16.9488 103.169 7.70639C105.771 2.63671 110.348 3.84808 109.989 8.91777C109.765 12.4623 109.585 16.0515 109.361 19.5959C109.271 21.6148 111.065 21.3457 112.007 19.9548C114.7 15.5581 117.391 11.206 120.084 6.85408C121.968 3.71347 128.384 2.32261 126.858 7.75135C125.198 17.1282 122.148 26.0117 118.109 34.6708C117.212 37.3179 113.757 38.3049 114.296 35.2092C115.507 30.5432 116.764 25.8322 118.019 21.2111C118.692 18.3845 116.854 19.8651 115.148 23.1403C112.995 26.9988 111.379 30.5432 108.733 34.5363C105.547 39.2919 102.451 39.1125 102.541 33.9081C102.765 30.6329 103.035 27.3577 103.304 24.0825C103.618 20.4932 102.765 19.91 101.285 23.7684C96.9778 36.6 93.8817 38.4395 91.0107 37.946ZM61.8477 23.0506C60.9504 23.903 60.2775 26.2808 59.7839 30.0497C59.7839 31.3058 60.2326 31.8443 61.085 31.9788C62.4759 32.0238 64.2705 32.1134 65.6165 32.0238C71.9426 31.7994 74.9485 23.6337 68.8468 23.1403C66.3343 23.0954 64.3602 23.0954 61.8477 23.0506ZM66.783 9.8152C65.7511 9.8152 64.7191 13.4492 64.6295 15.6926C64.405 17.4872 66.1997 17.2628 67.5008 17.3077C71.8977 17.4423 73.8717 15.9618 75.2178 13.4942C76.2946 10.9817 75.6664 9.77025 72.7951 9.77025C70.776 9.77025 68.802 9.8152 66.783 9.8152ZM59.2904 3.93774C62.9694 3.98261 66.6484 4.07236 70.3274 4.11723C75.3075 3.93774 78.5378 4.96963 79.1211 7.70639C79.8838 13.4045 76.8777 16.9039 72.7951 19.7753C73.7371 20.5829 74.4998 21.4802 74.6793 22.6468C75.0383 23.9478 76.3394 24.1722 77.2367 21.8841C77.9097 19.4613 78.8518 17.0834 80.0632 14.885C82.0372 11.8341 85.3128 12.4174 84.7744 15.5581C83.6077 21.8841 81.7679 23.0954 80.1977 30.0944C79.48 32.6518 83.1141 35.8373 86.8825 30.274C89.6197 26.8642 90.7863 16.7245 93.5676 14.1222C95.7214 12.0585 97.2471 13.0007 97.0227 15.2887C92.9393 30.4085 89.1261 38.1254 85.4025 37.8114C85.582 37.3179 85.8064 36.6898 85.7615 36.1514C85.7167 35.2989 85.3128 35.2092 83.832 35.9719C77.102 40.8623 73.6922 36.7795 73.6922 32.8762C73.7371 32.4723 73.2885 32.248 72.7951 32.7864C69.8338 36.1962 66.469 37.6769 62.8796 37.946C60.1877 37.946 57.4958 37.9909 54.8486 38.0358C52.1568 38.0358 50.8108 37.587 51.1697 33.3248C52.4709 24.6209 55.8806 13.8979 59.2904 3.93774ZM45.2923 26.6398C44.395 26.3258 42.1517 27.2231 40.6711 28.2102C38.0689 30.1843 38.2483 31.2161 38.6073 32.5621C39.1905 33.9979 42.1068 33.6389 44.2604 31.3508C46.3242 28.9279 46.5036 27.1783 45.2923 26.6398ZM41.2095 19.91C42.6451 18.2947 44.2155 17.2628 46.3242 18.2499C48.1189 19.0127 47.2214 21.8392 45.382 22.6018C41.03 23.4095 37.7099 23.9928 35.018 25.8322C30.3968 29.3767 30.4866 32.1134 31.1596 35.4783C32.012 39.4265 39.3252 38.4395 41.7927 36.1962C42.3759 37.0936 43.0489 37.7217 43.9464 37.6769C44.8884 37.6769 45.8306 37.6769 46.7728 37.6769C47.6702 37.6319 48.2085 37.273 48.1637 36.5103C48.0739 29.0177 56.0152 18.3397 52.5604 14.4363C47.5805 9.99461 36.9472 14.7504 36.7229 18.1602C36.2743 19.9548 40.6263 21.2111 41.2095 19.91ZM5.67576 37.3179C9.04065 25.8322 12.7645 14.5709 17.7447 6.0016C19.1355 3.30962 21.9172 3.53398 21.1993 7.12323C20.7956 9.27683 20.2123 11.3406 19.4944 13.3596C19.0457 14.885 20.2123 15.9169 22.2762 13.8979C27.2113 9.05247 31.6082 6.22587 35.9153 4.02749C38.6522 2.95073 39.3699 5.6875 37.8894 6.98861C31.6979 11.7444 26.3589 17.0834 28.4677 26.8642C28.9163 29.6907 29.2303 32.4723 28.9163 35.2989C27.8843 40.0099 23.667 37.2282 23.3529 35.1643C22.7248 32.0686 22.0967 28.9279 21.1545 25.9219C20.4366 23.5441 18.7766 23.0506 16.8922 25.5631C15.3219 27.4923 13.9311 29.1972 12.8543 33.0107C10.8354 37.6769 8.36774 37.7217 5.67576 37.3179ZM124.121 27.6717C124.031 29.242 125.378 29.7356 127.128 27.4474C130.357 21.7495 133.14 14.9298 135.652 7.34759C136.728 3.80313 132.063 3.35449 130.896 5.77724C128.519 9.99461 126.32 17.9807 124.121 27.6717Z" fill="#0060B1"/>
<path fill-rule="evenodd" clip-rule="evenodd" d="M141.35 28.1203C143.997 30.9021 137.94 33.3698 135.921 34.4016C134.441 35.1194 130.447 37.273 128.249 38.1254C127.621 38.3498 127.262 38.1703 127.262 37.5423C127.083 33.4145 137.94 31.7545 136.145 29.915C135.518 28.9728 127.711 22.9608 132.96 23.0954C134.979 23.1852 139.914 26.5949 141.35 28.1203ZM149.515 28.5242C148.169 27.0885 143.593 23.903 141.753 23.8582C136.908 23.7235 144.131 29.2868 144.715 30.1393C146.33 31.8443 136.325 33.4145 136.459 37.2282C136.504 37.7665 136.818 37.946 137.402 37.7217C139.421 36.9589 143.144 34.9849 144.49 34.267C146.375 33.3698 151.983 31.0815 149.515 28.5242Z" fill="#FF6500"/>
</svg>
